<svg id="SvgjsSvg1006" width="1194" height="554" xmlns="http://www.w3.org/2000/svg" version="1.1" xmlns:xlink="http://www.w3.org/1999/xlink" xmlns:svgjs="http://svgjs.com/svgjs"><defs id="SvgjsDefs1007"><marker id="SvgjsMarker1059" markerWidth="16" markerHeight="12" refX="16" refY="6" viewBox="0 0 16 12" orient="auto" markerUnits="userSpaceOnUse" stroke-dasharray="0,0"><path id="SvgjsPath1060" d="M0,2 L14,6 L0,11 L0,2" fill="#323232" stroke="#323232" stroke-width="2"></path></marker><marker id="SvgjsMarker1073" markerWidth="16" markerHeight="12" refX="16" refY="6" viewBox="0 0 16 12" orient="auto" markerUnits="userSpaceOnUse" stroke-dasharray="0,0"><path id="SvgjsPath1074" d="M0,2 L14,6 L0,11 L0,2" fill="#323232" stroke="#323232" stroke-width="2"></path></marker><marker id="SvgjsMarker1085" markerWidth="16" markerHeight="12" refX="16" refY="6" viewBox="0 0 16 12" orient="auto" markerUnits="userSpaceOnUse" stroke-dasharray="0,0"><path id="SvgjsPath1086" d="M0,2 L14,6 L0,11 L0,2" fill="#323232" stroke="#323232" stroke-width="2"></path></marker><marker id="SvgjsMarker1099" markerWidth="16" markerHeight="12" refX="16" refY="6" viewBox="0 0 16 12" orient="auto" markerUnits="userSpaceOnUse" stroke-dasharray="0,0"><path id="SvgjsPath1100" d="M0,2 L14,6 L0,11 L0,2" fill="#323232" stroke="#323232" stroke-width="2"></path></marker><marker id="SvgjsMarker1109" markerWidth="16" markerHeight="12" refX="16" refY="6" viewBox="0 0 16 12" orient="auto" markerUnits="userSpaceOnUse" stroke-dasharray="0,0"><path id="SvgjsPath1110" d="M0,2 L14,6 L0,11 L0,2" fill="#323232" stroke="#323232" stroke-width="2"></path></marker><marker id="SvgjsMarker1127" markerWidth="16" markerHeight="12" refX="16" refY="6" viewBox="0 0 16 12" orient="auto" markerUnits="userSpaceOnUse" stroke-dasharray="0,0"><path id="SvgjsPath1128" d="M0,2 L14,6 L0,11 L0,2" fill="#323232" stroke="#323232" stroke-width="2"></path></marker><marker id="SvgjsMarker1137" markerWidth="16" markerHeight="12" refX="16" refY="6" viewBox="0 0 16 12" orient="auto" markerUnits="userSpaceOnUse" stroke-dasharray="0,0"><path id="SvgjsPath1138" d="M0,2 L14,6 L0,11 L0,2" fill="#323232" stroke="#323232" stroke-width="2"></path></marker><marker id="SvgjsMarker1149" markerWidth="16" markerHeight="12" refX="16" refY="6" viewBox="0 0 16 12" orient="auto" markerUnits="userSpaceOnUse" stroke-dasharray="0,0"><path id="SvgjsPath1150" d="M0,2 L14,6 L0,11 L0,2" fill="#323232" stroke="#323232" stroke-width="2"></path></marker><marker id="SvgjsMarker1153" markerWidth="16" markerHeight="12" refX="16" refY="6" viewBox="0 0 16 12" orient="auto" markerUnits="userSpaceOnUse" stroke-dasharray="0,0"><path id="SvgjsPath1154" d="M0,2 L14,6 L0,11 L0,2" fill="#323232" stroke="#323232" stroke-width="2"></path></marker></defs><g id="SvgjsG1008" transform="translate(25,25)"><path id="SvgjsPath1009" d="M 0 0L 1144 0L 1144 504L 0 504Z" stroke="rgba(50,50,50,1)" stroke-width="2" fill="none"></path><path id="SvgjsPath1010" d="M 0 0L 40 0L 40 504L 0 504Z" stroke="rgba(50,50,50,1)" stroke-width="2" fill-opacity="1" fill="#ffffff"></path><g id="SvgjsG1011"><text id="SvgjsText1012" font-family="微软雅黑" text-anchor="middle" font-size="16px" width="484px" fill="#323232" font-weight="400" align="middle" lineHeight="125%" anchor="middle" family="微软雅黑" size="16px" weight="400" font-style="" opacity="1" y="8" transform="rotate(270)"><tspan id="SvgjsTspan1013" dy="20" x="-252"><tspan id="SvgjsTspan1014" style="text-decoration:;">WSGI Request Process</tspan></tspan></text></g></g><g id="SvgjsG1015" transform="translate(65,25)"><path id="SvgjsPath1016" d="M 0 0L 1104 0L 1104 127L 0 127Z" stroke="rgba(50,50,50,1)" stroke-width="2" fill="none"></path><path id="SvgjsPath1017" d="M 0 0L 30 0L 30 127L 0 127Z" stroke="rgba(50,50,50,1)" stroke-width="2" fill-opacity="1" fill="#ffffff"></path><g id="SvgjsG1018"><text id="SvgjsText1019" font-family="微软雅黑" text-anchor="middle" font-size="13px" width="107px" fill="#323232" font-weight="400" align="middle" lineHeight="125%" anchor="middle" family="微软雅黑" size="13px" weight="400" font-style="" opacity="1" y="5.375" transform="rotate(270)"><tspan id="SvgjsTspan1020" dy="16" x="-63.5"><tspan id="SvgjsTspan1021" style="text-decoration:;">client</tspan></tspan></text></g></g><g id="SvgjsG1022" transform="translate(65,152)"><path id="SvgjsPath1023" d="M 0 0L 1104 0L 1104 112L 0 112Z" stroke="rgba(50,50,50,1)" stroke-width="2" fill="none"></path><path id="SvgjsPath1024" d="M 0 0L 30 0L 30 112L 0 112Z" stroke="rgba(50,50,50,1)" stroke-width="2" fill-opacity="1" fill="#ffffff"></path><g id="SvgjsG1025"><text id="SvgjsText1026" font-family="微软雅黑" text-anchor="middle" font-size="13px" width="92px" fill="#323232" font-weight="400" align="middle" lineHeight="125%" anchor="middle" family="微软雅黑" size="13px" weight="400" font-style="" opacity="1" y="5.375" transform="rotate(270)"><tspan id="SvgjsTspan1027" dy="16" x="-56"><tspan id="SvgjsTspan1028" style="text-decoration:;">wsgi server</tspan></tspan></text></g></g><g id="SvgjsG1029" transform="translate(65,264)"><path id="SvgjsPath1030" d="M 0 0L 1104 0L 1104 138L 0 138Z" stroke="rgba(50,50,50,1)" stroke-width="2" fill="none"></path><path id="SvgjsPath1031" d="M 0 0L 30 0L 30 138L 0 138Z" stroke="rgba(50,50,50,1)" stroke-width="2" fill-opacity="1" fill="#ffffff"></path><g id="SvgjsG1032"><text id="SvgjsText1033" font-family="微软雅黑" text-anchor="middle" font-size="13px" width="118px" fill="#323232" font-weight="400" align="middle" lineHeight="125%" anchor="middle" family="微软雅黑" size="13px" weight="400" font-style="" opacity="1" y="5.375" transform="rotate(270)"><tspan id="SvgjsTspan1034" dy="16" x="-69"><tspan id="SvgjsTspan1035" style="text-decoration:;">wsgi middleware</tspan></tspan></text></g></g><g id="SvgjsG1036" transform="translate(65,402)"><path id="SvgjsPath1037" d="M 0 0L 1104 0L 1104 127L 0 127Z" stroke="rgba(50,50,50,1)" stroke-width="2" fill="none"></path><path id="SvgjsPath1038" d="M 0 0L 30 0L 30 127L 0 127Z" stroke="rgba(50,50,50,1)" stroke-width="2" fill-opacity="1" fill="#ffffff"></path><g id="SvgjsG1039"><text id="SvgjsText1040" font-family="微软雅黑" text-anchor="middle" font-size="13px" width="107px" fill="#323232" font-weight="400" align="middle" lineHeight="125%" anchor="middle" family="微软雅黑" size="13px" weight="400" font-style="" opacity="1" y="5.375" transform="rotate(270)"><tspan id="SvgjsTspan1041" dy="16" x="-63.5"><tspan id="SvgjsTspan1042" style="text-decoration:;">wsgi application</tspan></tspan></text></g></g><g id="SvgjsG1043" transform="translate(128,51)"><path id="SvgjsPath1044" d="M 0 0L 197 0L 197 73L 0 73Z" stroke="rgba(50,50,50,1)" stroke-width="2" fill-opacity="1" fill="#ffffff"></path><g id="SvgjsG1045"><text id="SvgjsText1046" font-family="微软雅黑" text-anchor="middle" font-size="13px" width="177px" fill="#323232" font-weight="400" align="middle" lineHeight="125%" anchor="middle" family="微软雅黑" size="13px" weight="400" font-style="" opacity="1" y="26.875" transform="rotate(0)"><tspan id="SvgjsTspan1047" dy="16" x="98.5"><tspan id="SvgjsTspan1048" style="text-decoration:;">request</tspan></tspan></text></g></g><g id="SvgjsG1049" transform="translate(128,176)"><path id="SvgjsPath1050" d="M 0 0L 197 0L 197 62L 0 62Z" stroke="rgba(50,50,50,1)" stroke-width="2" fill-opacity="1" fill="#ffffff"></path><g id="SvgjsG1051"><text id="SvgjsText1052" font-family="微软雅黑" text-anchor="middle" font-size="13px" width="177px" fill="#323232" font-weight="400" align="middle" lineHeight="125%" anchor="middle" family="微软雅黑" size="13px" weight="400" font-style="" opacity="1" y="13.375" transform="rotate(0)"><tspan id="SvgjsTspan1053" dy="16" x="98.5"><tspan id="SvgjsTspan1054" style="text-decoration:;">middleware(environ, </tspan></tspan><tspan id="SvgjsTspan1055" dy="16" x="98.5"><tspan id="SvgjsTspan1056" style="text-decoration:;">start_response)</tspan></tspan></text></g></g><g id="SvgjsG1057"><path id="SvgjsPath1058" d="M226.5 124L226.5 150L226.5 150L226.5 176" stroke="#323232" stroke-width="2" fill="none" marker-end="url(#SvgjsMarker1059)"></path></g><g id="SvgjsG1061" transform="translate(128,297)"><path id="SvgjsPath1062" d="M 0 0L 197 0L 197 67L 0 67Z" stroke="rgba(50,50,50,1)" stroke-width="2" fill-opacity="1" fill="#ffffff"></path><g id="SvgjsG1063"><text id="SvgjsText1064" font-family="微软雅黑" text-anchor="middle" font-size="13px" width="177px" fill="#323232" font-weight="400" align="middle" lineHeight="125%" anchor="middle" family="微软雅黑" size="13px" weight="400" font-style="" opacity="1" y="7.875" transform="rotate(0)"><tspan id="SvgjsTspan1065" dy="16" x="98.5"><tspan id="SvgjsTspan1066" style="text-decoration:;">1、modify environ(maybe)</tspan></tspan><tspan id="SvgjsTspan1067" dy="16" x="98.5"><tspan id="SvgjsTspan1068" style="text-decoration:;">2、defined start_response</tspan></tspan><tspan id="SvgjsTspan1069" dy="16" x="98.5"><tspan id="SvgjsTspan1070" style="text-decoration:;">（maybe）</tspan></tspan></text></g></g><g id="SvgjsG1071"><path id="SvgjsPath1072" d="M226.5 238L226.5 267.5L226.5 267.5L226.5 297" stroke="#323232" stroke-width="2" fill="none" marker-end="url(#SvgjsMarker1073)"></path></g><g id="SvgjsG1075" transform="translate(380,295.5)"><path id="SvgjsPath1076" d="M 0 0L 217 0L 217 70L 0 70Z" stroke="rgba(50,50,50,1)" stroke-width="2" fill-opacity="1" fill="#ffffff"></path><g id="SvgjsG1077"><text id="SvgjsText1078" font-family="微软雅黑" text-anchor="middle" font-size="13px" width="197px" fill="#323232" font-weight="400" align="middle" lineHeight="125%" anchor="middle" family="微软雅黑" size="13px" weight="400" font-style="" opacity="1" y="17.375" transform="rotate(0)"><tspan id="SvgjsTspan1079" dy="16" x="108.5"><tspan id="SvgjsTspan1080" style="text-decoration:;">application(environ, </tspan></tspan><tspan id="SvgjsTspan1081" dy="16" x="108.5"><tspan id="SvgjsTspan1082" style="text-decoration:;">start_response)</tspan></tspan></text></g></g><g id="SvgjsG1083"><path id="SvgjsPath1084" d="M325 330.5L352.5 330.5L352.5 330.5L380 330.5" stroke="#323232" stroke-width="2" fill="none" marker-end="url(#SvgjsMarker1085)"></path></g><g id="SvgjsG1087" transform="translate(381.5,439)"><path id="SvgjsPath1088" d="M 0 0L 214 0L 214 58L 0 58Z" stroke="rgba(50,50,50,1)" stroke-width="2" fill-opacity="1" fill="#ffffff"></path><g id="SvgjsG1089"><text id="SvgjsText1090" font-family="微软雅黑" text-anchor="middle" font-size="13px" width="194px" fill="#323232" font-weight="400" align="middle" lineHeight="125%" anchor="middle" family="微软雅黑" size="13px" weight="400" font-style="" opacity="1" y="3.375" transform="rotate(0)"><tspan id="SvgjsTspan1091" dy="16" x="107"><tspan id="SvgjsTspan1092" style="text-decoration:;">1、create status &amp; http header</tspan></tspan><tspan id="SvgjsTspan1093" dy="16" x="107"><tspan id="SvgjsTspan1094" style="text-decoration:;">2、start_response(status, </tspan></tspan><tspan id="SvgjsTspan1095" dy="16" x="107"><tspan id="SvgjsTspan1096" style="text-decoration:;">http_header)</tspan></tspan></text></g></g><g id="SvgjsG1097"><path id="SvgjsPath1098" d="M488.5 365.5L488.5 402.25L488.5 402.25L488.5 439" stroke="#323232" stroke-width="2" fill="none" marker-end="url(#SvgjsMarker1099)"></path></g><g id="SvgjsG1101" transform="translate(645,439)"><path id="SvgjsPath1102" d="M 0 0L 192 0L 192 58L 0 58Z" stroke="rgba(50,50,50,1)" stroke-width="2" fill-opacity="1" fill="#ffffff"></path><g id="SvgjsG1103"><text id="SvgjsText1104" font-family="微软雅黑" text-anchor="middle" font-size="13px" width="172px" fill="#323232" font-weight="400" align="middle" lineHeight="125%" anchor="middle" family="微软雅黑" size="13px" weight="400" font-style="" opacity="1" y="19.375" transform="rotate(0)"><tspan id="SvgjsTspan1105" dy="16" x="96"><tspan id="SvgjsTspan1106" style="text-decoration:;">return iterable</tspan></tspan></text></g></g><g id="SvgjsG1107"><path id="SvgjsPath1108" d="M595.5 468L620.25 468L620.25 468L645 468" stroke="#323232" stroke-width="2" fill="none" marker-end="url(#SvgjsMarker1109)"></path></g><g id="SvgjsG1111" transform="translate(920.5,297)"><path id="SvgjsPath1112" d="M 0 0L 201 0L 201 67L 0 67Z" stroke="rgba(50,50,50,1)" stroke-width="2" fill-opacity="1" fill="#ffffff"></path><g id="SvgjsG1113"><text id="SvgjsText1114" font-family="微软雅黑" text-anchor="middle" font-size="13px" width="181px" fill="#323232" font-weight="400" align="middle" lineHeight="125%" anchor="middle" family="微软雅黑" size="13px" weight="400" font-style="" opacity="1" y="23.875" transform="rotate(0)"><tspan id="SvgjsTspan1115" dy="16" x="100.5"><tspan id="SvgjsTspan1116" style="text-decoration:;">return iterable</tspan></tspan></text></g></g><g id="SvgjsG1117" transform="translate(925,165.5)"><path id="SvgjsPath1118" d="M 0 0L 192 0L 192 70L 0 70Z" stroke="rgba(50,50,50,1)" stroke-width="2" fill-opacity="1" fill="#ffffff"></path><g id="SvgjsG1119"><text id="SvgjsText1120" font-family="微软雅黑" text-anchor="middle" font-size="13px" width="172px" fill="#323232" font-weight="400" align="middle" lineHeight="125%" anchor="middle" family="微软雅黑" size="13px" weight="400" font-style="" opacity="1" y="17.375" transform="rotate(0)"><tspan id="SvgjsTspan1121" dy="16" x="96"><tspan id="SvgjsTspan1122" style="text-decoration:;">yield iterable &amp; write() &amp; </tspan></tspan><tspan id="SvgjsTspan1123" dy="16" x="96"><tspan id="SvgjsTspan1124" style="text-decoration:;">response</tspan></tspan></text></g></g><g id="SvgjsG1125"><path id="SvgjsPath1126" d="M1021 297L1021 266.25L1021 266.25L1021 235.5" stroke="#323232" stroke-width="2" fill="none" marker-end="url(#SvgjsMarker1127)"></path></g><g id="SvgjsG1129" transform="translate(939,56.5)"><path id="SvgjsPath1130" d="M 0 0L 164 0L 164 67L 0 67Z" stroke="rgba(50,50,50,1)" stroke-width="2" fill-opacity="1" fill="#ffffff"></path><g id="SvgjsG1131"><text id="SvgjsText1132" font-family="微软雅黑" text-anchor="middle" font-size="13px" width="144px" fill="#323232" font-weight="400" align="middle" lineHeight="125%" anchor="middle" family="微软雅黑" size="13px" weight="400" font-style="" opacity="1" y="23.875" transform="rotate(0)"><tspan id="SvgjsTspan1133" dy="16" x="82"><tspan id="SvgjsTspan1134" style="text-decoration:;">repsonse</tspan></tspan></text></g></g><g id="SvgjsG1135"><path id="SvgjsPath1136" d="M1021 165.5L1021 144.5L1021 144.5L1021 123.5" stroke="#323232" stroke-width="2" fill="none" marker-end="url(#SvgjsMarker1137)"></path></g><g id="SvgjsG1139" transform="translate(655,300.25)"><path id="SvgjsPath1140" d="M 0 0L 172 0L 172 60.5L 0 60.5Z" stroke="rgba(50,50,50,1)" stroke-width="2" fill-opacity="1" fill="#ffffff"></path><g id="SvgjsG1141"><text id="SvgjsText1142" font-family="微软雅黑" text-anchor="middle" font-size="13px" width="152px" fill="#323232" font-weight="400" align="middle" lineHeight="125%" anchor="middle" family="微软雅黑" size="13px" weight="400" font-style="" opacity="1" y="12.625" transform="rotate(0)"><tspan id="SvgjsTspan1143" dy="16" x="86"><tspan id="SvgjsTspan1144" style="text-decoration:;">modify status or header </tspan></tspan><tspan id="SvgjsTspan1145" dy="16" x="86"><tspan id="SvgjsTspan1146" style="text-decoration:;">or body(maybe)</tspan></tspan></text></g></g><g id="SvgjsG1147"><path id="SvgjsPath1148" d="M741 439L741 399.875L741 399.875L741 360.75" stroke="#323232" stroke-width="2" fill="none" marker-end="url(#SvgjsMarker1149)"></path></g><g id="SvgjsG1151"><path id="SvgjsPath1152" d="M827 330.5L873.75 330.5L873.75 330.5L920.5 330.5" stroke="#323232" stroke-width="2" fill="none" marker-end="url(#SvgjsMarker1153)"></path></g></svg>